<svg xmlns="http://www.w3.org/2000/svg" xmlns:xlink="http://www.w3.org/1999/xlink" version="1.1" id="Capa_1" x="0px" y="0px" viewBox="0 0 384 384" style="enable-background:new 0 0 384 384;" xml:space="preserve" width="512" height="512" class=""><g><polygon style="fill:#27A2DB;" points="198.982,243.804 198.982,166.199 185.018,166.199 185.018,243.804 56.564,324.981   64.023,336.789 192,255.905 319.977,336.789 327.436,324.981 " data-original="#27A2DB"></polygon><path style="fill:#64798A;" d="M89.851,206.079H5.677c-3.135,0-5.677,2.541-5.677,5.677v166.567C0,381.459,2.542,384,5.677,384  h84.174c3.136,0,5.677-2.541,5.677-5.677V211.756C95.528,208.62,92.987,206.079,89.851,206.079z" data-original="#64798A" class=""></path><g>
	<rect x="8.752" y="214.848" style="fill:#3A556A;" width="77.968" height="20.548" data-original="#3A556A" class=""></rect>
	<rect x="8.792" y="251.608" style="fill:#3A556A;" width="77.968" height="20.548" data-original="#3A556A" class=""></rect>
</g><g>
	<path style="fill:#FABD2F" d="M81.262,239.358h-8.686c-0.607,0-1.098,0.492-1.098,1.097v2.742c0,0.606,0.491,1.098,1.098,1.098   h8.686c0.606,0,1.097-0.492,1.097-1.098v-2.742C82.359,239.85,81.868,239.358,81.262,239.358z" data-original="#FCD462" class="" data-old_color="#fabd2f"></path>
	<path style="fill:#FABD2F" d="M81.262,275.685h-8.686c-0.607,0-1.098,0.491-1.098,1.097v2.742c0,0.606,0.491,1.097,1.098,1.097   h8.686c0.606,0,1.097-0.491,1.097-1.097v-2.742C82.359,276.176,81.868,275.685,81.262,275.685z" data-original="#FCD462" class="" data-old_color="#fabd2f"></path>
</g><circle style="fill:#3A556A;" cx="47.764" cy="316.52" r="9.756" data-original="#3A556A" class=""></circle><circle style="fill:#2F4859;" cx="47.764" cy="316.52" r="5.7" data-original="#2F4859"></circle><circle style="fill:#E56353;" cx="47.764" cy="341" r="1.936" data-original="#E56353"></circle><circle style="fill:#44C4A1;" cx="47.764" cy="334.04" r="1.936" data-original="#44C4A1"></circle><path style="fill:#64798A;" d="M378.323,206.079h-84.174c-3.136,0-5.677,2.541-5.677,5.677v166.567c0,3.136,2.541,5.677,5.677,5.677  h84.174c3.136,0,5.677-2.541,5.677-5.677V211.756C384,208.62,381.458,206.079,378.323,206.079z" data-original="#64798A" class=""></path><g>
	<rect x="297.228" y="214.856" style="fill:#3A556A;" width="77.972" height="20.548" data-original="#3A556A" class=""></rect>
	<rect x="297.268" y="251.604" style="fill:#3A556A;" width="77.972" height="20.548" data-original="#3A556A" class=""></rect>
</g><g>
	<path style="fill:#FABD2F" d="M369.733,239.358h-8.686c-0.606,0-1.097,0.492-1.097,1.097v2.742c0,0.606,0.491,1.098,1.097,1.098   h8.686c0.607,0,1.098-0.492,1.098-1.098v-2.742C370.831,239.85,370.34,239.358,369.733,239.358z" data-original="#FCD462" class="" data-old_color="#fabd2f"></path>
	<path style="fill:#FABD2F" d="M369.733,275.685h-8.686c-0.606,0-1.097,0.491-1.097,1.097v2.742c0,0.606,0.491,1.097,1.097,1.097   h8.686c0.607,0,1.098-0.491,1.098-1.097v-2.742C370.831,276.176,370.34,275.685,369.733,275.685z" data-original="#FCD462" class="" data-old_color="#fabd2f"></path>
</g><circle style="fill:#3A556A;" cx="336.24" cy="316.52" r="9.756" data-original="#3A556A" class=""></circle><circle style="fill:#2F4859;" cx="336.24" cy="316.52" r="5.7" data-original="#2F4859"></circle><circle style="fill:#E56353;" cx="336.24" cy="341" r="1.936" data-original="#E56353"></circle><circle style="fill:#44C4A1;" cx="336.24" cy="334.04" r="1.936" data-original="#44C4A1"></circle><path style="fill:#3A556A;" d="M279.832,0H104.167c-3.586,0-6.492,2.906-6.492,6.492v130.28h188.65V6.493  C286.325,2.907,283.419,0,279.832,0z" data-original="#3A556A" class=""></path><polygon style="fill:#FABD2F" points="108.959,11.285 108.959,125.488 275.038,125.488 " data-original="#FCD462" class="" data-old_color="#fabd2f"></polygon><polygon style="fill:#FABD2F" points="108.959,11.285 275.038,125.488 275.038,11.285 " data-original="#F6C358" class="active-path" data-old_color="#fabd2f"></polygon><path style="fill:#EBF0F3;" d="M308.368,185.265l-22.043-48.492H97.675l-22.043,48.492c-1.434,3.154,0.871,6.735,4.336,6.735  h224.063C307.495,192,309.802,188.419,308.368,185.265z" data-original="#EBF0F3" class=""></path><polygon style="fill:#D5D6DB;" points="90.094,180.718 104.94,148.056 279.056,148.056 293.903,180.718 " data-original="#D5D6DB"></polygon><path style="fill:#EBF0F3;" d="M238.327,59.469c0.001-0.12,0.009-0.239,0.009-0.359c0-16.802-13.621-30.422-30.422-30.422  c-9.425,0-17.848,4.286-23.428,11.015c-2.994-1.352-6.306-2.122-9.804-2.122c-12.422,0-22.618,9.49-23.756,21.614  c-0.552-0.052-1.109-0.084-1.674-0.084c-9.908,0-17.942,8.033-17.942,17.941c0,9.909,8.034,17.942,17.942,17.942h85.495  c9.909,0,17.942-8.033,17.942-17.942C252.689,68.368,246.52,61.128,238.327,59.469z" data-original="#EBF0F3" class=""></path><g>
	<path style="fill:#FFFFFF" d="M170.268,46.408c2.756,0,5.444,0.582,7.987,1.73l3.066,1.385l2.147-2.59   c0.586-0.708,1.212-1.373,1.861-2.008l-2.661-1.201c-2.543-1.149-5.23-1.731-7.986-1.731c-6.5,0-12.253,3.15-15.788,8.067   C162.097,47.761,166.021,46.408,170.268,46.408z" data-original="#FFFFFF" class=""></path>
	<path style="fill:#FFFFFF" d="M144.84,67.937c0.424,0,0.845,0.027,1.26,0.066l4.394,0.411l0.412-4.393   c0.012-0.133,0.04-0.259,0.055-0.39l-0.448-0.042c-0.416-0.039-0.836-0.066-1.261-0.066c-4.859,0-9.115,2.583-11.5,6.441   C139.817,68.687,142.239,67.937,144.84,67.937z" data-original="#FFFFFF" class=""></path>
	<path style="fill:#FFFFFF" d="M237.451,63.796l-3.603-0.73l0.075-3.957c0-14.341-11.668-26.008-26.01-26.008   c-7.765,0-15.065,3.433-20.03,9.419l-0.508,0.614c4.553-3.608,10.199-5.619,16.124-5.619c14.343,0,26.011,11.667,26.011,26.009   l-0.076,3.957l3.603,0.73c6.272,1.269,10.826,6.844,10.826,13.255c0,2.601-0.75,5.024-2.027,7.087   c3.857-2.386,6.44-6.642,6.44-11.5C248.276,70.639,243.723,65.065,237.451,63.796z" data-original="#FFFFFF" class=""></path>
</g></g> </svg>